<svg xmlns="http://www.w3.org/2000/svg">
    <symbol viewBox="0 0 31 41" id="logo">
        <path d="M31 41C15.2854 32.1564 21.0072 7.96354 19.0878 0.238096C16.6975 -2.71997 13.4555 22.8617 10.075 22.8617C6.69463 22.8617 3.45267 6.37728 1.06236 9.33535C-1.32795 12.2934 1.06236 28.3797 1.06236 32.563H4.04893C4.04893 29.7659 2.45071 16.9205 4.04893 14.9426C5.64715 12.9648 7.81481 32.563 10.075 32.563C12.3353 32.563 17.9463 7.35751 19.5446 9.33535C16.1011 9.33535 16.1011 22.8617 16.1011 32.563L31 41Z"
              fill="#76CCFB"/>
        <path d="M19.373 20.2472C19.9614 26.421 21.5485 32.7728 25.7793 37.469L16.6011 32.2715C16.6013 27.4755 16.6101 21.833 17.0294 17.3578C17.1225 16.3645 17.2352 15.4356 17.371 14.5909C17.6516 13.7538 17.9213 12.9831 18.1764 12.3067C18.4989 11.4514 18.7891 10.7711 19.0391 10.3035C19.0247 13.381 19.0445 16.8004 19.373 20.2472ZM19.049 8.61968C19.0486 8.67558 19.0483 8.73162 19.048 8.78781C19.0117 8.8033 18.9778 8.82073 18.9466 8.83904C18.8471 8.89745 18.7552 8.97612 18.6703 9.06648C18.4303 9.20138 18.2157 9.38898 18.0265 9.61222C17.6392 10.0692 17.332 10.7021 17.0806 11.439C16.8025 12.2544 16.5783 13.2418 16.3969 14.3508C15.8311 16.0428 15.2257 17.9873 14.6138 19.9525L14.5807 20.0588C13.6368 23.0903 12.6779 26.1645 11.8149 28.481C11.3825 29.6416 10.9815 30.5915 10.6261 31.2449C10.4472 31.5736 10.2921 31.8043 10.1646 31.946C10.1205 31.995 10.0872 32.0252 10.0645 32.0433C10.0503 32.0323 10.0319 32.0162 10.0093 31.9931C9.91776 31.8999 9.8045 31.7387 9.67563 31.4927C9.41939 31.0036 9.1539 30.2823 8.88329 29.387C8.34392 27.6026 7.81525 25.2348 7.30204 22.9036C7.27426 22.7774 7.24651 22.6513 7.21882 22.5254C6.97253 21.4058 6.72971 20.302 6.49173 19.2906C6.70514 19.7423 6.92061 20.1728 7.13775 20.5714C7.55383 21.3353 7.9909 22.0105 8.45037 22.501C8.90019 22.9812 9.44451 23.3617 10.075 23.3617C10.4521 23.3617 10.7763 23.1825 11.0392 22.9489C11.3021 22.7153 11.5418 22.3946 11.7634 22.0258C12.2073 21.287 12.634 20.2601 13.0456 19.0748C13.8707 16.6985 14.6728 13.5708 15.4373 10.5638C15.4639 10.4589 15.4906 10.3541 15.5171 10.2496C16.2564 7.34079 16.9584 4.57863 17.6185 2.69009C17.9653 1.69787 18.2791 1.01283 18.5475 0.667971C18.5882 0.615701 18.6219 0.578993 18.6484 0.553359C19.0641 2.41342 19.0694 5.22089 19.049 8.61968ZM2.57744 10.4624C3.14037 11.38 3.74019 12.7624 4.37808 14.3088C4.25633 14.2924 4.13096 14.3073 4.01077 14.3565C3.85708 14.4195 3.74296 14.5258 3.66003 14.6284C3.38045 14.9744 3.21226 15.4927 3.09979 16.0548C2.98372 16.6348 2.91334 17.3371 2.87528 18.1124C2.7991 19.6642 2.85014 21.5629 2.95029 23.4718C3.04676 25.3108 3.1896 27.1728 3.3114 28.7605L3.32565 28.9461C3.42522 30.2449 3.50713 31.3317 3.53689 32.063H1.55352C1.51853 30.9686 1.38383 29.3713 1.22434 27.5414C1.20874 27.3624 1.19288 27.1811 1.17684 26.9975C1.00063 24.9815 0.801556 22.7041 0.665073 20.4594C0.516026 18.008 0.442777 15.6123 0.553157 13.6524C0.608364 12.6722 0.70885 11.8146 0.864041 11.1202C1.02178 10.4144 1.22503 9.92957 1.45126 9.64961C1.55927 9.51594 1.62883 9.48835 1.64973 9.48275C1.66077 9.4798 1.69141 9.47199 1.76748 9.51135C1.95903 9.61046 2.23441 9.90321 2.57744 10.4624Z"
              stroke="black" stroke-opacity="0.2"/>
    </symbol>
    <symbol viewBox="0 0 22 22" id="history">
        <path fill-rule="evenodd" clip-rule="evenodd"
              d="M7 5H4.11409C6.04466 2.79137 8.15921 2 11 2C15.9706 2 20 6.02944 20 11C20 15.9706 15.9706 20 11 20C6.02944 20 2 15.9706 2 11H0C0 17.0751 4.92487 22 11 22C17.0751 22 22 17.0751 22 11C22 4.92487 17.0751 0 11 0C7.78663 0 5.23708 0.910558 3 3.25645V0.991211H1V7H7V5ZM16 10H12V5H10V12H16V10Z"
              fill="#76CCFB"/>
    </symbol>
    <symbol viewBox="0 0 20 23" id="bell">
        <path fill-rule="evenodd" clip-rule="evenodd"
              d="M17 9C17 4.94082 14.7616 2.1235 11.8654 1.27771C11.7605 1.00636 11.5948 0.7541 11.3695 0.54243C10.5997 -0.18081 9.40027 -0.18081 8.63051 0.54243C8.40572 0.753635 8.24021 1.00525 8.13531 1.27592C5.23535 2.11803 3 4.92919 3 9C3 11.6339 2.46898 13.1098 1.48596 14.1793C1.32161 14.3582 0.876316 14.7678 0.574677 15.0453L0.574652 15.0453L0.574646 15.0453L0.574499 15.0454C0.431865 15.1766 0.321381 15.2783 0.287965 15.3119L0 15.604V19.0141H6.08798C6.29384 20.0761 6.87009 20.7867 7.9122 21.4226C9.19414 22.2049 10.8059 22.2049 12.0878 21.4226C13.0075 20.8614 13.6241 19.9989 13.8743 19.0141H20V15.604L19.712 15.3119C19.6817 15.2812 19.5757 15.1834 19.437 15.0555C19.1363 14.7781 18.6823 14.3592 18.5154 14.1769C17.5317 13.1024 17 11.6246 17 9ZM11.7367 19.0141H8.17862C8.3199 19.2769 8.56071 19.4754 8.95402 19.7154C9.59627 20.1073 10.4037 20.1073 11.046 19.7154C11.3434 19.5339 11.5758 19.2937 11.7367 19.0141ZM17.0402 15.5274C17.2506 15.7573 17.7016 16.1774 18 16.4519V17.0141H2V16.4524C2.29607 16.1811 2.74843 15.7613 2.95849 15.5327C4.29422 14.0794 5 12.1178 5 9C5 5.21989 7.33277 3.01238 10 3.01238C12.6597 3.01238 15 5.23129 15 9C15 12.1078 15.706 14.07 17.0402 15.5274Z"
              fill="#76CCFB"/>
    </symbol>
    <symbol viewBox="0 0 24 23" id="favorite">
        <path fill-rule="evenodd" clip-rule="evenodd"
              d="M6.17022 14.8942L4.794 22.9182L12 19.1298L19.206 22.9182L17.8297 14.8942L23.6595 9.21159L15.603 8.04091L12 0.740448L8.39699 8.04091L0.340454 9.21159L6.17022 14.8942ZM15.6808 14.196L16.5497 19.2622L12 16.8702L7.45026 19.2622L8.31918 14.196L4.63838 10.6081L9.72512 9.86892L12 5.25955L14.2748 9.86892L19.3616 10.6081L15.6808 14.196Z"
              fill="#76CCFB"/>
    </symbol>
    <symbol viewBox="0 0 24 24" id="player-list">
        <path fill-rule="evenodd" clip-rule="evenodd"
              d="M4 7V5H19V7H4ZM4 9V11H19V9H4ZM4 15V13H16V15H4ZM4 19V17H16V19H4ZM22 16L18 13V19L22 16Z" fill="#76CCFB"/>
    </symbol>
    <symbol viewBox="0 0 46 46" id="user">
        <path fill-rule="evenodd" clip-rule="evenodd" d="M23 44.0833C11.356 44.0833 1.91669 34.644 1.91669 23C1.91669 11.356 11.356 1.91666 23 1.91666C34.644 1.91666 44.0834 11.356 44.0834 23C44.0834 34.644 34.644 44.0833 23 44.0833ZM37.1824 32.8222C39.1165 30.0348 40.25 26.6497 40.25 23C40.25 13.4731 32.5269 5.74999 23 5.74999C13.4731 5.74999 5.75003 13.4731 5.75003 23C5.75003 26.6497 6.88352 30.0348 8.81767 32.8222C10.9748 29.973 16.0437 28.75 23 28.75C29.9564 28.75 35.0253 29.9729 37.1824 32.8222ZM34.4324 35.9179C33.8714 33.9007 29.8413 32.5833 23 32.5833C16.1587 32.5833 12.1287 33.9007 11.5677 35.9179C14.6114 38.6135 18.6146 40.25 23 40.25C27.3855 40.25 31.3887 38.6135 34.4324 35.9179ZM23 11.5C18.36 11.5 15.3333 14.8652 15.3333 19.1667C15.3333 25.7358 18.7083 28.75 23 28.75C27.2513 28.75 30.6667 25.8359 30.6667 19.55C30.6667 15.183 27.6272 11.5 23 11.5ZM19.1667 19.1667C19.1667 23.5161 20.7349 24.9167 23 24.9167C25.2573 24.9167 26.8333 23.5719 26.8333 19.55C26.8333 17.155 25.33 15.3333 23 15.3333C20.573 15.3333 19.1667 16.897 19.1667 19.1667Z" fill="#76CCFB"/>
    </symbol>
</svg>